<svg width="160" height="40" viewBox="0 0 160 40" fill="none" xmlns="http://www.w3.org/2000/svg">
<path d="M144.94 28.69H139.3L138.76 26.02H144.94V23.35H140.11L139.57 20.68H144.94V19.06H147.61V20.68H152.98L152.17 23.35H147.61V26.02H153.76L152.98 28.69H147.61V33.79H144.94V28.69ZM136.9 15.58V18.52L136.96 29.41L138.28 28.87V31.87L134.26 33.73L134.23 18.52H131.8L131.26 15.58H136.9ZM135.67 7.54004L137.71 13.96H135.16L132.31 7.54004H135.67ZM144.52 14.89L139.75 11.29H144.01L146.74 13.45L150.28 11.2V10.21H139.57L139.03 7.54004H152.98V12.67L148.78 15.1L153.76 19.06V19.09H150.1L146.53 16.42L142 19.06H137.98L144.52 14.89Z" fill="#202224"/>
<path d="M109.379 14.56H105.389L104.849 12.43H106.769L105.389 10.48H107.729L108.659 12.43H109.379V9.67H105.929L105.389 7.54H110.939L115.529 7V8.62L111.539 9.58V12.43H112.259L113.189 10.48H115.529L114.149 12.43H116.069L115.529 14.56H111.539V20.71H109.379V14.56ZM106.769 15.01H109.019L106.829 20.71H105.119L106.769 15.01ZM105.389 21.52H115.529V31.57L114.989 33.7H105.929L105.389 31.57V21.52ZM109.379 31.57V28.69H107.519V31.57H109.379ZM109.379 26.56V23.65H107.519V26.56H109.379ZM113.399 31.57V28.69H111.539V31.57H113.399ZM113.399 26.56V23.65H111.539V26.56H113.399ZM114.149 15.01L115.799 20.71H114.089L111.899 15.01H114.149ZM121.469 7.54V31.57L120.929 33.7H117.989L117.479 31.57H119.189V9.94H116.429L115.889 7.54H121.469ZM117.359 19.57H118.949L117.809 30.25H115.919L117.359 19.57ZM118.379 11.29L118.919 18.76H117.419L116.489 11.29H118.379ZM127.349 7.54V31.57L126.809 33.7H123.869L123.329 31.57H125.069V9.94H122.309L121.769 7.54H127.349ZM123.239 19.57H124.829L123.689 30.25H121.799L123.239 19.57ZM124.259 11.29L124.799 18.76H123.269L122.369 11.29H124.259Z" fill="#202224"/>
<path d="M92.627 30.58H96.377V13.42H88.337L87.827 10.75H96.377V7H99.077V10.75H100.937L100.397 13.42H99.077V30.58L98.537 33.25H93.167L92.627 30.58ZM78.437 8.08H87.017V28.96L86.477 31.63H78.977L78.437 28.96V8.08ZM84.317 28.96V21.19H81.107V28.96H84.317ZM84.317 18.52V10.75H81.107V18.52H84.317ZM92.477 15.31L94.427 27.1H92.267L89.747 15.31H92.477Z" fill="#202224"/>
<path d="M52.0249 7H62.7349V18.79L62.1949 21.46H54.6949V29.05L59.6449 27.34L58.8049 23.32H61.5349L63.0349 32.98H60.8449L60.1549 29.8L52.0249 33.25V7ZM60.0649 18.79V15.13H54.6949V18.79H60.0649ZM60.0649 12.43V9.67H54.6949V12.43H60.0649ZM64.3549 7H74.5249V26.56H74.4949L73.9849 29.23H69.9949L69.4549 26.56H71.8549V9.67H67.0249V33.25H64.3549V7Z" fill="#202224"/>
<path d="M0 8C0 3.58172 3.58172 0 8 0H32C36.4183 0 40 3.58172 40 8V32C40 36.4183 36.4183 40 32 40H8C3.58172 40 0 36.4183 0 32V8Z" fill="#0395FF"/>
<path d="M18.7207 11.5938H25.3408L25.1211 13.4141H22.8213C21.5813 16.3207 20.1142 18.7138 18.4209 20.5938C19.5489 21.7755 20.9091 22.9058 22.5 23.9854L23.4297 21.7158L25.3174 17.0576H28.3486L29.7031 21.7178L32.2988 30.7061H30.0479L28.9355 26.7969H23.6445L22.0576 30.7021H19.7529L21.6992 25.9443C19.8299 24.6869 18.2626 23.3851 17.001 22.0342C15.9745 22.954 14.8547 23.7805 13.6416 24.5137C12.4284 25.2336 11.0547 25.9271 9.52148 26.5938L7.70117 25.2744C10.9678 23.8878 13.6211 22.2941 15.6611 20.4941C14.0212 18.4275 12.7145 16.0673 11.7412 13.4141H9.36133L9.58105 11.5938H16.501L15.7607 9.29395H17.9209L18.7207 11.5938ZM24.457 24.7969H28.3672L26.7578 19.1387L24.457 24.7969ZM13.9014 13.4141C14.7014 15.534 15.7683 17.4271 17.1016 19.0938C18.5148 17.5872 19.7146 15.6939 20.7012 13.4141H13.9014Z" fill="white"/>
</svg>
