<svg width="152" height="40" viewBox="0 0 152 40" fill="none" xmlns="http://www.w3.org/2000/svg">
<g clip-path="url(#clip0_2053_415)">
<path d="M0 8C0 3.58172 3.58172 0 8 0H32C36.4183 0 40 3.58172 40 8V32C40 36.4183 36.4183 40 32 40H8C3.58172 40 0 36.4183 0 32V8Z" fill="#0395FF"/>
<path d="M18.7207 11.5938H25.3408L25.1211 13.4141H22.8213C21.5813 16.3207 20.1142 18.7138 18.4209 20.5938C19.5489 21.7755 20.9091 22.9058 22.5 23.9854L23.4297 21.7158L25.3174 17.0576H28.3486L29.7031 21.7178L32.2988 30.7061H30.0479L28.9355 26.7969H23.6445L22.0576 30.7021H19.7529L21.6992 25.9443C19.8299 24.6869 18.2626 23.3851 17.001 22.0342C15.9745 22.954 14.8547 23.7805 13.6416 24.5137C12.4284 25.2336 11.0547 25.9271 9.52148 26.5938L7.70117 25.2744C10.9678 23.8878 13.6211 22.2941 15.6611 20.4941C14.0212 18.4275 12.7145 16.0673 11.7412 13.4141H9.36133L9.58105 11.5938H16.501L15.7607 9.29395H17.9209L18.7207 11.5938ZM24.457 24.7969H28.3672L26.7578 19.1387L24.457 24.7969ZM13.9014 13.4141C14.7014 15.534 15.7683 17.4271 17.1016 19.0938C18.5148 17.5872 19.7146 15.6939 20.7012 13.4141H13.9014Z" fill="white"/>
<path d="M150.568 20.117L143.054 16.633L135.046 20.117L134.37 18.557L141.026 15.671L135.046 12.863L135.774 11.303L143.132 14.735L148.852 12.239V10.289H135.384V8.57298H149.71C149.953 8.57298 150.152 8.65965 150.308 8.83299C150.481 8.98899 150.568 9.18832 150.568 9.43099V12.785C150.568 13.1663 150.395 13.4263 150.048 13.565L145.16 15.697L151.296 18.557L150.568 20.117ZM131.198 31.765C131.042 31.765 130.886 31.713 130.73 31.609C130.487 31.453 130.366 31.219 130.366 30.907V17.075H127.662V15.359H131.198C131.441 15.359 131.64 15.4457 131.796 15.619C131.969 15.775 132.056 15.9743 132.056 16.217V29.607L134.942 28.359L135.644 29.893L131.562 31.687C131.423 31.739 131.302 31.765 131.198 31.765ZM131.302 14.501L128.884 8.91098L130.444 8.20898L132.888 13.825L131.302 14.501ZM143.678 31.739H141.962V27.579H134.89V25.863H141.962V22.483H135.306V20.767H141.962V18.609H143.678V20.767H150.334V22.483H143.678V25.863H150.75V27.579H143.678V31.739Z" fill="#202224"/>
<path d="M101.974 10.835L101.896 9.119L112.998 8.625L113.05 10.341L108.318 10.549V14.683H109.202L110.762 10.861L112.348 11.511L111.048 14.683H113.31V16.399H111.906L113.908 20.611L112.868 21.131C112.903 21.2003 112.92 21.287 112.92 21.391V30.907C112.92 31.1497 112.833 31.349 112.66 31.505C112.504 31.6783 112.305 31.765 112.062 31.765H102.884C102.641 31.765 102.433 31.6783 102.26 31.505C102.104 31.349 102.026 31.1497 102.026 30.907V21.391C102.026 21.287 102.035 21.2003 102.052 21.131L101.038 20.611L103.04 16.399H101.636V14.683H106.628V10.627L101.974 10.835ZM114.74 27.787L113.206 27.059L117.158 18.947V10.887H113.31V9.171H117.99C118.233 9.171 118.432 9.25767 118.588 9.431C118.761 9.587 118.848 9.78633 118.848 10.029V30.907C118.848 31.1497 118.761 31.349 118.588 31.505C118.432 31.6783 118.233 31.765 117.99 31.765H114.532V30.049H117.158V22.847L114.74 27.787ZM120.46 27.787L118.926 27.059L122.878 18.947V10.887H119.29V9.171H123.71C123.953 9.171 124.152 9.25767 124.308 9.431C124.481 9.587 124.568 9.78633 124.568 10.029V30.907C124.568 31.1497 124.481 31.349 124.308 31.505C124.152 31.6783 123.953 31.765 123.71 31.765H120.252V30.049H122.878V22.847L120.46 27.787ZM103.716 14.527L102.598 11.485L104.21 10.887L105.302 13.929L103.716 14.527ZM115.078 19.415L113.648 13.643L115.312 13.253L116.716 19.025L115.078 19.415ZM120.798 19.415L119.368 13.643L121.032 13.253L122.436 19.025L120.798 19.415ZM108.318 20.039H106.628V16.399H104.912L102.962 20.533H111.984L110.008 16.399H108.318V20.039ZM103.742 25.317H106.628V22.249H103.742V25.317ZM111.204 22.249H108.318V25.317H111.204V22.249ZM103.742 30.075H106.628V27.007H103.742V30.075ZM111.204 30.075V27.007H108.318V30.075H111.204Z" fill="#202224"/>
<path d="M83.5662 31.4528H76.5982C76.3556 31.4528 76.1476 31.3661 75.9742 31.1928C75.8182 31.0368 75.7402 30.8374 75.7402 30.5948V9.61275C75.7402 9.37009 75.8182 9.17075 75.9742 9.01475C76.1476 8.84142 76.3556 8.75475 76.5982 8.75475H83.5662C83.8089 8.75475 84.0082 8.84142 84.1642 9.01475C84.3202 9.17075 84.3982 9.37009 84.3982 9.61275V30.5948C84.3982 30.8374 84.3202 31.0368 84.1642 31.1928C84.0082 31.3661 83.8089 31.4528 83.5662 31.4528ZM95.9162 31.7908H89.2862V30.1008H95.0582V13.4868H85.0742V11.7708H95.0582V8.57275H96.7742V11.7708H98.9322V13.4868H96.7742V30.9328C96.7742 31.1754 96.6876 31.3748 96.5142 31.5308C96.3582 31.7041 96.1589 31.7908 95.9162 31.7908ZM82.7082 10.4708H77.4302V19.2588H82.7082V10.4708ZM91.7562 25.9928L85.6982 16.9968L87.1022 16.0348L93.1602 25.0308L91.7562 25.9928ZM77.4302 29.7368H82.7082V20.9748H77.4302V29.7368Z" fill="#202224"/>
<path d="M60.92 31.3231L59.022 27.4751L51.248 31.6611C51.1267 31.7305 50.988 31.7651 50.832 31.7651C50.676 31.7651 50.5373 31.7305 50.416 31.6611C50.1387 31.4878 50 31.2365 50 30.9071V20.6371V20.5331V9.74313C50 9.50047 50.078 9.30113 50.234 9.14513C50.39 8.98913 50.5893 8.91113 50.832 8.91113H60.686C60.9287 8.91113 61.128 8.98913 61.284 9.14513C61.4573 9.30113 61.544 9.50047 61.544 9.74313V20.5331C61.544 20.7758 61.4573 20.9751 61.284 21.1311C61.128 21.2871 60.9287 21.3651 60.686 21.3651H51.69V29.5031L58.294 25.9411L56.734 22.7431L58.268 21.9891L62.454 30.5691L60.92 31.3231ZM64.612 31.7651H62.896V9.74313C62.896 9.50047 62.974 9.30113 63.13 9.14513C63.3033 8.98913 63.5113 8.91113 63.754 8.91113H71.71C71.9527 8.91113 72.152 8.98913 72.308 9.14513C72.4813 9.30113 72.568 9.50047 72.568 9.74313V27.5791C72.568 27.8218 72.4813 28.0298 72.308 28.2031C72.152 28.3591 71.9527 28.4371 71.71 28.4371H66.094V26.7211H70.878V10.6011H64.612V31.7651ZM59.828 10.6011H51.69V14.2931H59.828V10.6011ZM51.69 19.6751H59.828V15.9831H51.69V19.6751Z" fill="#202224"/>
</g>
<defs>
<clipPath id="clip0_2053_415">
<rect width="152" height="40" fill="white"/>
</clipPath>
</defs>
</svg>
