<svg width="180" height="40" viewBox="0 0 180 40" fill="none" xmlns="http://www.w3.org/2000/svg">
<path d="M163.702 29.9537H156.934L156.286 26.7497H163.702V23.5457H157.906L157.258 20.3417H163.702V18.3977H166.906V20.3417H173.35L172.378 23.5457H166.906V26.7497H174.286L173.35 29.9537H166.906V36.0737H163.702V29.9537ZM154.054 14.2217V17.7497L154.126 30.8177L155.71 30.1697V33.7697L150.886 36.0017L150.85 17.7497H147.934L147.286 14.2217H154.054ZM152.578 4.57373L155.026 12.2777H151.966L148.546 4.57373H152.578ZM163.198 13.3937L157.474 9.07373H162.586L165.862 11.6657L170.11 8.96573V7.77773H157.258L156.61 4.57373H173.35V10.7297L168.31 13.6457L174.286 18.3977V18.4337H169.894L165.61 15.2297L160.174 18.3977H155.35L163.198 13.3937Z" fill="#202224"/>
<path d="M121.028 12.9978H116.24L115.592 10.4418H117.896L116.24 8.10178H119.048L120.164 10.4418H121.028V7.12978H116.888L116.24 4.57378H122.9L128.408 3.92578V5.86978L123.62 7.02178V10.4418H124.484L125.6 8.10178H128.408L126.752 10.4418H129.056L128.408 12.9978H123.62V20.3778H121.028V12.9978ZM117.896 13.5378H120.596L117.968 20.3778H115.916L117.896 13.5378ZM116.24 21.3498H128.408V33.4098L127.76 35.9658H116.888L116.24 33.4098V21.3498ZM121.028 33.4098V29.9538H118.796V33.4098H121.028ZM121.028 27.3978V23.9058H118.796V27.3978H121.028ZM125.852 33.4098V29.9538H123.62V33.4098H125.852ZM125.852 27.3978V23.9058H123.62V27.3978H125.852ZM126.752 13.5378L128.732 20.3778H126.68L124.052 13.5378H126.752ZM135.536 4.57378V33.4098L134.888 35.9658H131.36L130.748 33.4098H132.8V7.45378H129.488L128.84 4.57378H135.536ZM130.604 19.0098H132.512L131.144 31.8258H128.876L130.604 19.0098ZM131.828 9.07378L132.476 18.0378H130.676L129.56 9.07378H131.828ZM142.592 4.57378V33.4098L141.944 35.9658H138.416L137.768 33.4098H139.856V7.45378H136.544L135.896 4.57378H142.592ZM137.66 19.0098H139.568L138.2 31.8258H135.932L137.66 19.0098ZM138.884 9.07378L139.532 18.0378H137.696L136.616 9.07378H138.884Z" fill="#202224"/>
<path d="M100.926 32.2218H105.426V11.6298H95.778L95.166 8.42578H105.426V3.92578H108.666V8.42578H110.898L110.25 11.6298H108.666V32.2218L108.018 35.4258H101.574L100.926 32.2218ZM83.8979 5.22178H94.194V30.2778L93.5459 33.4818H84.5459L83.8979 30.2778V5.22178ZM90.9539 30.2778V20.9538H87.1019V30.2778H90.9539ZM90.9539 17.7498V8.42578H87.1019V17.7498H90.9539ZM100.746 13.8978L103.086 28.0458H100.494L97.4699 13.8978H100.746Z" fill="#202224"/>
<path d="M52.2036 3.92578H65.0556V18.0738L64.4076 21.2778H55.4076V30.3858L61.3476 28.3338L60.3396 23.5098H63.6156L65.4156 35.1018H62.7876L61.9596 31.2858L52.2036 35.4258V3.92578ZM61.8516 18.0738V13.6818H55.4076V18.0738H61.8516ZM61.8516 10.4418V7.12978H55.4076V10.4418H61.8516ZM66.9996 3.92578H79.2036V27.3978H79.1676L78.5556 30.6018H73.7676L73.1196 27.3978H75.9996V7.12978H70.2036V35.4258H66.9996V3.92578Z" fill="#202224"/>
<path d="M0 8C0 3.58172 3.58172 0 8 0H32C36.4183 0 40 3.58172 40 8V32C40 36.4183 36.4183 40 32 40H8C3.58172 40 0 36.4183 0 32V8Z" fill="#0395FF"/>
<path d="M18.7207 11.5938H25.3408L25.1211 13.4141H22.8213C21.5813 16.3207 20.1142 18.7138 18.4209 20.5938C19.5489 21.7755 20.9091 22.9058 22.5 23.9854L23.4297 21.7158L25.3174 17.0576H28.3486L29.7031 21.7178L32.2988 30.7061H30.0479L28.9355 26.7969H23.6445L22.0576 30.7021H19.7529L21.6992 25.9443C19.8299 24.6869 18.2626 23.3851 17.001 22.0342C15.9745 22.954 14.8547 23.7805 13.6416 24.5137C12.4284 25.2336 11.0547 25.9271 9.52148 26.5938L7.70117 25.2744C10.9678 23.8878 13.6211 22.2941 15.6611 20.4941C14.0212 18.4275 12.7145 16.0673 11.7412 13.4141H9.36133L9.58105 11.5938H16.501L15.7607 9.29395H17.9209L18.7207 11.5938ZM24.457 24.7969H28.3672L26.7578 19.1387L24.457 24.7969ZM13.9014 13.4141C14.7014 15.534 15.7683 17.4271 17.1016 19.0938C18.5148 17.5872 19.7146 15.6939 20.7012 13.4141H13.9014Z" fill="white"/>
</svg>
