<svg width="160" height="40" viewBox="0 0 160 40" fill="none" xmlns="http://www.w3.org/2000/svg">
<g clip-path="url(#clip0_2051_201)">
<path d="M150.592 28.8481H144.576L144 26.0001H150.592V23.1521H145.44L144.864 20.3041H150.592V18.5761H153.44V20.3041H159.168L158.304 23.1521H153.44V26.0001H160L159.168 28.8481H153.44V34.2881H150.592V28.8481ZM142.016 14.8641V18.0001L142.08 29.6161L143.488 29.0401V32.2401L139.2 34.2241L139.168 18.0001H136.576L136 14.8641H142.016ZM140.704 6.28809L142.88 13.1361H140.16L137.12 6.28809H140.704ZM150.144 14.1281L145.056 10.2881H149.6L152.512 12.5921L156.288 10.1921V9.13609H144.864L144.288 6.28809H159.168V11.7601L154.688 14.3521L160 18.5761V18.6081H156.096L152.288 15.7601L147.456 18.5761H143.168L150.144 14.1281Z" fill="#202224"/>
<path d="M112.66 13.7759H108.404L107.828 11.5039H109.876L108.404 9.42391H110.9L111.892 11.5039H112.66V8.55991H108.98L108.404 6.28791H114.324L119.22 5.71191V7.43991L114.964 8.46391V11.5039H115.732L116.724 9.42391H119.22L117.748 11.5039H119.796L119.22 13.7759H114.964V20.3359H112.66V13.7759ZM109.876 14.2559H112.276L109.94 20.3359H108.116L109.876 14.2559ZM108.404 21.1999H119.22V31.9199L118.644 34.1919H108.98L108.404 31.9199V21.1999ZM112.66 31.9199V28.8479H110.676V31.9199H112.66ZM112.66 26.5759V23.4719H110.676V26.5759H112.66ZM116.948 31.9199V28.8479H114.964V31.9199H116.948ZM116.948 26.5759V23.4719H114.964V26.5759H116.948ZM117.748 14.2559L119.508 20.3359H117.684L115.348 14.2559H117.748ZM125.556 6.28791V31.9199L124.98 34.1919H121.844L121.3 31.9199H123.124V8.84791H120.18L119.604 6.28791H125.556ZM121.172 19.1199H122.868L121.652 30.5119H119.636L121.172 19.1199ZM122.26 10.2879L122.836 18.2559H121.236L120.244 10.2879H122.26ZM131.828 6.28791V31.9199L131.252 34.1919H128.116L127.54 31.9199H129.396V8.84791H126.452L125.876 6.28791H131.828ZM127.444 19.1199H129.14L127.924 30.5119H125.908L127.444 19.1199ZM128.532 10.2879L129.108 18.2559H127.476L126.516 10.2879H128.532Z" fill="#202224"/>
<path d="M94.7913 30.8639H98.7913V12.5599H90.2153L89.6713 9.71191H98.7913V5.71191H101.671V9.71191H103.655L103.079 12.5599H101.671V30.8639L101.095 33.7119H95.3673L94.7913 30.8639ZM79.6553 6.86391H88.8073V29.1359L88.2313 31.9839H80.2313L79.6553 29.1359V6.86391ZM85.9273 29.1359V20.8479H82.5033V29.1359H85.9273ZM85.9273 17.9999V9.71191H82.5033V17.9999H85.9273ZM94.6313 14.5759L96.7113 27.1519H94.4073L91.7193 14.5759H94.6313Z" fill="#202224"/>
<path d="M51.4824 5.71191H62.9064V18.2879L62.3304 21.1359H54.3304V29.2319L59.6104 27.4079L58.7144 23.1199H61.6264L63.2264 33.4239H60.8904L60.1544 30.0319L51.4824 33.7119V5.71191ZM60.0584 18.2879V14.3839H54.3304V18.2879H60.0584ZM60.0584 11.5039V8.55991H54.3304V11.5039H60.0584ZM64.6344 5.71191H75.4824V26.5759H75.4504L74.9064 29.4239H70.6504L70.0744 26.5759H72.6344V8.55991H67.4824V33.7119H64.6344V5.71191Z" fill="#202224"/>
<path d="M0 8C0 3.58172 3.58172 0 8 0H32C36.4183 0 40 3.58172 40 8V32C40 36.4183 36.4183 40 32 40H8C3.58172 40 0 36.4183 0 32V8Z" fill="#0395FF"/>
<path d="M18.7207 11.5938H25.3408L25.1211 13.4141H22.8213C21.5813 16.3207 20.1142 18.7138 18.4209 20.5938C19.5489 21.7755 20.9091 22.9058 22.5 23.9854L23.4297 21.7158L25.3174 17.0576H28.3486L29.7031 21.7178L32.2988 30.7061H30.0479L28.9355 26.7969H23.6445L22.0576 30.7021H19.7529L21.6992 25.9443C19.8299 24.6869 18.2626 23.3851 17.001 22.0342C15.9745 22.954 14.8547 23.7805 13.6416 24.5137C12.4284 25.2336 11.0547 25.9271 9.52148 26.5938L7.70117 25.2744C10.9678 23.8878 13.6211 22.2941 15.6611 20.4941C14.0212 18.4275 12.7145 16.0673 11.7412 13.4141H9.36133L9.58105 11.5938H16.501L15.7607 9.29395H17.9209L18.7207 11.5938ZM24.457 24.7969H28.3672L26.7578 19.1387L24.457 24.7969ZM13.9014 13.4141C14.7014 15.534 15.7683 17.4271 17.1016 19.0938C18.5148 17.5872 19.7146 15.6939 20.7012 13.4141H13.9014Z" fill="white"/>
</g>
<defs>
<clipPath id="clip0_2051_201">
<rect width="160" height="40" fill="white"/>
</clipPath>
</defs>
</svg>
