<svg width="168" height="40" viewBox="0 0 168 40" fill="none" xmlns="http://www.w3.org/2000/svg">
<path d="M65.11 22.33H56.68L55.93 28.24C55.91 28.32 55.9 28.41 55.9 28.51C55.9 28.67 55.97 28.75 56.11 28.75C56.23 28.75 56.4 28.71 56.62 28.63C57.1 28.51 57.68 28.32 58.36 28.06L58.99 27.85L59.65 27.61C60.35 27.37 60.97 27.14 61.51 26.92L60.61 23.59H63.31L65.53 31.42H62.77L62.23 29.47C61.09 29.91 60.07 30.28 59.17 30.58L57.52 31.15C56.86 31.39 56.34 31.57 55.96 31.69C55.58 31.81 55.19 31.87 54.79 31.87C54.29 31.87 53.9 31.74 53.62 31.48C53.22 31.12 53.02 30.59 53.02 29.89C53.02 29.75 53.04 29.52 53.08 29.2L55.36 10.72C55.48 9.82 55.75 9.2 56.17 8.86C56.61 8.5 57.34 8.32 58.36 8.32H63.91C65.61 8.32 66.46 9.01 66.46 10.39C66.46 10.61 66.45 10.78 66.43 10.9L65.11 22.33ZM75.37 11.38H71.29L68.74 33.37H65.92L68.47 11.08C68.57 10.2 68.8 9.58 69.16 9.22C69.52 8.86 70.13 8.68 70.99 8.68H75.97C77.45 8.68 78.19 9.38 78.19 10.78C78.19 10.88 78.17 11.09 78.13 11.41L76.45 26.35C76.29 27.83 75.53 28.57 74.17 28.57C73.67 28.57 73.09 28.51 72.43 28.39C71.79 28.25 71.2 28.08 70.66 27.88L71.02 25.21C71.64 25.41 72.35 25.58 73.15 25.72C73.23 25.74 73.33 25.75 73.45 25.75C73.59 25.75 73.68 25.71 73.72 25.63C73.78 25.55 73.83 25.41 73.87 25.21L75.37 11.38ZM63.73 10.78H58.18L57.73 14.17H63.34L63.73 10.78ZM63.07 16.51H57.43L57.01 19.87H62.68L63.07 16.51ZM105.1 7.45L104.53 12.34H107.2L106.84 15.04H104.23L102.49 30.73C102.31 32.35 101.52 33.16 100.12 33.16C100 33.16 99.78 33.14 99.46 33.1C98.58 32.96 97.66 32.76 96.7 32.5C95.78 32.28 94.9 31.98 94.06 31.6L94.45 28.84C95.89 29.38 97.45 29.82 99.13 30.16C99.21 30.18 99.31 30.19 99.43 30.19C99.55 30.19 99.63 30.16 99.67 30.1C99.71 30.02 99.75 29.89 99.79 29.71L101.41 15.04H92.95L93.31 12.34H101.71L102.25 7.45H105.1ZM90.16 31.03H81.22L83.56 11.53C83.66 10.55 83.9 9.86 84.28 9.46C84.66 9.04 85.3 8.83 86.2 8.83H90.16C90.96 8.83 91.54 9.03 91.9 9.43C92.26 9.83 92.44 10.42 92.44 11.2C92.44 11.48 92.43 11.7 92.41 11.86L90.16 31.03ZM89.83 11.47H86.2L85.39 18.1H89.08L89.83 11.47ZM96.61 17.47L98.14 25.06H95.41L94.03 17.47H96.61ZM84.13 28.39H87.91L88.81 20.5H85.09L84.13 28.39ZM110.68 14.32H115.42L115.84 10.6L111.34 10.87L111.58 8.71C115.58 8.49 119.18 8.16 122.38 7.72L122.14 9.97L118.42 10.36L117.97 14.32H122.23L121.96 16.51H117.88C119.4 17.45 120.92 18.47 122.44 19.57L120.85 21.16C119.63 20.16 118.5 19.28 117.46 18.52L117.19 20.92H114.7L114.94 18.76C113.6 19.86 112.05 20.82 110.29 21.64L108.91 19.81C110.17 19.23 111.23 18.7 112.09 18.22C112.95 17.72 113.78 17.15 114.58 16.51H110.44L110.68 14.32ZM124.84 32.98C124.32 32.98 123.74 32.91 123.1 32.77C122.48 32.63 121.92 32.46 121.42 32.26L121.78 29.71C122 29.79 122.36 29.9 122.86 30.04L123.88 30.28C123.92 30.3 123.99 30.31 124.09 30.31C124.29 30.31 124.42 30.16 124.48 29.86L125.17 23.8C124.15 24.58 123.05 25.34 121.87 26.08L122.23 22.96C123.27 22.36 124.37 21.63 125.53 20.77L126.7 10.96H123.01L123.31 8.56H127.45C128.01 8.56 128.43 8.73 128.71 9.07C128.99 9.41 129.13 9.87 129.13 10.45C129.13 10.69 129.12 10.88 129.1 11.02L126.73 30.97C126.63 31.69 126.43 32.2 126.13 32.5C125.85 32.82 125.42 32.98 124.84 32.98ZM131.56 32.95C131.04 32.95 130.46 32.88 129.82 32.74C129.2 32.6 128.64 32.43 128.14 32.23L128.5 29.71C128.7 29.79 129.05 29.9 129.55 30.04L130.57 30.28C130.63 30.3 130.7 30.31 130.78 30.31C130.96 30.31 131.08 30.16 131.14 29.86L131.86 23.59C131.02 24.23 129.95 24.96 128.65 25.78L128.11 26.14L128.47 23.02C129.85 22.24 131.1 21.42 132.22 20.56L133.36 10.99H129.7L130 8.56H134.14C134.72 8.56 135.16 8.74 135.46 9.1C135.76 9.44 135.91 9.9 135.91 10.48C135.91 10.72 135.9 10.9 135.88 11.02L133.51 30.94C133.41 31.66 133.2 32.17 132.88 32.47C132.58 32.79 132.14 32.95 131.56 32.95ZM119.77 11.11H121.96L121 13.72H118.81L119.77 11.11ZM114.04 11.41L114.64 13.72H112.36L111.76 11.41H114.04ZM124.66 13.27L125.47 18.88H123.4L122.71 13.27H124.66ZM131.29 13.45L131.98 18.82H129.97L129.37 13.45H131.29ZM120.25 32.56H109.54L110.68 23.47C110.76 22.91 110.96 22.48 111.28 22.18C111.62 21.86 112.06 21.7 112.6 21.7H119.47C120.09 21.7 120.56 21.86 120.88 22.18C121.2 22.48 121.36 22.92 121.36 23.5C121.36 23.74 121.35 23.92 121.33 24.04L120.25 32.56ZM114.97 23.8H112.78L112.51 26.05H114.67L114.97 23.8ZM118.87 26.05L119.14 23.8H116.98L116.68 26.05H118.87ZM114.43 28.03H112.27L112 30.49H114.13L114.43 28.03ZM116.44 28.03L116.14 30.49H118.33L118.63 28.03H116.44ZM140.71 7.72L146.5 10.21L146.08 13.15L140.32 10.66L140.71 7.72ZM162.58 19.72C160.22 19.34 157.88 18.46 155.56 17.08C154.24 17.74 152.9 18.3 151.54 18.76C150.2 19.22 148.96 19.54 147.82 19.72L146.02 17.56C148.34 17.12 150.69 16.38 153.07 15.34C151.43 13.96 150.15 12.43 149.23 10.75H148.09L148.39 8.17H160.99C161.91 8.17 162.57 8.5 162.97 9.16C163.11 9.38 163.18 9.66 163.18 10C163.18 10.42 163.04 10.88 162.76 11.38C161.94 12.8 160.43 14.2 158.23 15.58C160.17 16.42 162.26 17.04 164.5 17.44L162.58 19.72ZM152.26 10.75C153.06 12.09 154.15 13.21 155.53 14.11C157.21 13.19 158.5 12.22 159.4 11.2C159.48 11.12 159.52 11.04 159.52 10.96C159.52 10.9 159.49 10.85 159.43 10.81C159.39 10.77 159.33 10.75 159.25 10.75H152.26ZM143.2 27.7V27.85C143.2 27.99 143.24 28.06 143.32 28.06C143.38 28.06 143.47 28.03 143.59 27.97C144.45 27.57 145.19 27.15 145.81 26.71L146.17 29.53C145.83 29.77 145.4 30.04 144.88 30.34L144.13 30.73L143.5 31.09C142.88 31.41 142.33 31.57 141.85 31.57C141.49 31.57 141.2 31.5 140.98 31.36C140.46 31.06 140.2 30.47 140.2 29.59C140.2 29.35 140.21 29.16 140.23 29.02L141.67 17.56H138.34L138.67 14.86H143.02C143.6 14.86 144.02 15.04 144.28 15.4C144.56 15.76 144.67 16.23 144.61 16.81L143.2 27.7ZM146.56 28.33L146.86 25.75H153.37L153.67 23.35H147.58L147.88 20.83H153.94L154.24 18.4H157.15L156.85 20.83H162.91L162.61 23.35H156.55L156.28 25.75H163.6L163.3 28.33H155.95L155.38 33.31H152.5L153.07 28.33H146.56Z" fill="#202224"/>
<g clip-path="url(#clip0_2034_1105)">
<rect width="40" height="40" rx="8" fill="url(#paint0_linear_2034_1105)"/>
<path d="M9.85325 8.80664L14.9999 11.02L14.6266 13.6333L9.50658 11.42L9.85325 8.80664ZM29.2933 19.4733C27.1955 19.1355 25.1155 18.3533 23.0532 17.1266C21.8799 17.7133 20.6888 18.2111 19.4799 18.62C18.2888 19.0289 17.1866 19.3133 16.1732 19.4733L14.5732 17.5533C16.6355 17.1622 18.7244 16.5044 20.8399 15.58C19.3821 14.3533 18.2444 12.9933 17.4266 11.5H16.4132L16.6799 9.20664H27.8799C28.6977 9.20664 29.2844 9.49997 29.6399 10.0866C29.7644 10.2822 29.8266 10.5311 29.8266 10.8333C29.8266 11.2066 29.7021 11.6155 29.4532 12.06C28.7244 13.3222 27.3821 14.5666 25.4266 15.7933C27.151 16.54 29.0088 17.0911 30.9999 17.4466L29.2933 19.4733ZM20.1199 11.5C20.831 12.6911 21.7999 13.6866 23.0266 14.4866C24.5199 13.6689 25.6666 12.8066 26.4666 11.9C26.5377 11.8289 26.5732 11.7578 26.5732 11.6866C26.5732 11.6333 26.5466 11.5889 26.4932 11.5533C26.4577 11.5178 26.4044 11.5 26.3332 11.5H20.1199ZM12.0666 26.5666V26.7C12.0666 26.8244 12.1021 26.8866 12.1732 26.8866C12.2266 26.8866 12.3066 26.86 12.4132 26.8066C13.1777 26.4511 13.8355 26.0778 14.3866 25.6866L14.7066 28.1933C14.4044 28.4066 14.0221 28.6466 13.5599 28.9133L12.8932 29.26L12.3332 29.58C11.7821 29.8644 11.2932 30.0066 10.8666 30.0066C10.5466 30.0066 10.2888 29.9444 10.0932 29.82C9.63103 29.5533 9.39992 29.0289 9.39992 28.2466C9.39992 28.0333 9.4088 27.8644 9.42658 27.74L10.7066 17.5533H7.74658L8.03992 15.1533H11.9066C12.4221 15.1533 12.7955 15.3133 13.0266 15.6333C13.2755 15.9533 13.3732 16.3711 13.3199 16.8866L12.0666 26.5666ZM15.0532 27.1266L15.3199 24.8333H21.1066L21.3733 22.7H15.9599L16.2266 20.46H21.6132L21.8799 18.3H24.4666L24.1999 20.46H29.5866L29.3199 22.7H23.9333L23.6932 24.8333H30.1999L29.9333 27.1266H23.3999L22.8932 31.5533H20.3332L20.8399 27.1266H15.0532Z" fill="white"/>
</g>
<defs>
<linearGradient id="paint0_linear_2034_1105" x1="20" y1="0" x2="20" y2="40" gradientUnits="userSpaceOnUse">
<stop stop-color="#0776FF"/>
<stop offset="1" stop-color="#0395FF"/>
</linearGradient>
<clipPath id="clip0_2034_1105">
<rect width="40" height="40" fill="white"/>
</clipPath>
</defs>
</svg>
