<svg width="148" height="40" viewBox="0 0 148 40" fill="none" xmlns="http://www.w3.org/2000/svg">
<path d="M0 8C0 3.58172 3.58172 0 8 0H32C36.4183 0 40 3.58172 40 8V32C40 36.4183 36.4183 40 32 40H8C3.58172 40 0 36.4183 0 32V8Z" fill="#0395FF"/>
<path d="M18.7207 11.5938H25.3408L25.1211 13.4141H22.8213C21.5813 16.3207 20.1142 18.7138 18.4209 20.5938C19.5489 21.7755 20.9091 22.9058 22.5 23.9854L23.4297 21.7158L25.3174 17.0576H28.3486L29.7031 21.7178L32.2988 30.7061H30.0479L28.9355 26.7969H23.6445L22.0576 30.7021H19.7529L21.6992 25.9443C19.8299 24.6869 18.2626 23.3851 17.001 22.0342C15.9745 22.954 14.8547 23.7805 13.6416 24.5137C12.4284 25.2336 11.0547 25.9271 9.52148 26.5938L7.70117 25.2744C10.9678 23.8878 13.6211 22.2941 15.6611 20.4941C14.0212 18.4275 12.7145 16.0673 11.7412 13.4141H9.36133L9.58105 11.5938H16.501L15.7607 9.29395H17.9209L18.7207 11.5938ZM24.457 24.7969H28.3672L26.7578 19.1387L24.457 24.7969ZM13.9014 13.4141C14.7014 15.534 15.7683 17.4271 17.1016 19.0938C18.5148 17.5872 19.7146 15.6939 20.7012 13.4141H13.9014Z" fill="white"/>
<path d="M145.072 21.0236C142.128 20.2236 139.656 19.2156 137.656 17.9996C135.64 19.2316 133.16 20.2396 130.216 21.0236V17.8796C131.96 17.4156 133.552 16.8076 134.992 16.0556C132.864 14.1356 131.544 11.8796 131.032 9.28763H144.256C143.744 11.8796 142.424 14.1356 140.296 16.0556C141.736 16.8076 143.328 17.4156 145.072 17.8796V21.0236ZM123.112 15.9596H128.416V25.5356L129.688 25.0556V28.6316L125.344 30.2396V19.1516H123.112V15.9596ZM127.552 9.11963L129.208 14.3276H125.968L124.312 9.11963H127.552ZM130.144 25.4876H136.096V23.9996H130.696V21.1436H136.096V19.2476H139.168V21.1436H144.664V23.9996H139.168V25.4876H145.36V28.3676H139.168V30.7196H136.096V28.3676H130.144V25.4876ZM135.232 12.0236C135.872 13.0476 136.672 13.9356 137.632 14.6876C138.608 13.9516 139.416 13.0636 140.056 12.0236H135.232Z" fill="#202224"/>
<path d="M116.944 27.84H118.456V12.264H116.176V9.24H120.88V30.72H116.944V27.84ZM99.1836 14.496H100.672L100.072 12.528H102.4L103 14.496H103.672V12.048C102.6 12.112 101.376 12.144 99.9996 12.144V9.6C101.488 9.6 102.984 9.552 104.488 9.456C105.992 9.36 107.752 9.208 109.768 9V11.52C108.504 11.664 107.32 11.784 106.216 11.88V14.496H106.792L107.464 12.288H109.792L109.12 14.496H110.464V16.992H109.312C109.584 18.432 109.896 19.576 110.248 20.424H107.56C107.32 19.656 107.088 18.512 106.864 16.992H106.216V20.112H103.672V16.992H103.024C102.8 18.512 102.568 19.656 102.328 20.424H99.5676C99.9516 19.48 100.288 18.336 100.576 16.992H99.1836V14.496ZM99.9756 20.808H109.912V30.648H99.9756V20.808ZM103.816 28.368V26.784H102.664V28.368H103.816ZM103.816 24.672V23.088H102.664V24.672H103.816ZM107.224 28.368V26.784H106.072V28.368H107.224ZM107.224 24.672V23.088H106.072V24.672H107.224ZM112.48 13.224L113.032 18.816H111.112L110.56 13.224H112.48ZM110.704 9.24H115.648V30.72H111.472V27.84H113.224V12.264H110.704V9.24ZM111.256 19.56H113.08L112.576 26.376H110.752L111.256 19.56ZM116.464 19.56H118.312L117.736 26.376H115.888L116.464 19.56ZM117.712 13.224L118.264 18.816H116.44L115.888 13.224H117.712Z" fill="#202224"/>
<path d="M84.3279 9.59963V29.3516H76.0239V9.59963H84.3279ZM81.4239 26.3996V20.7596H78.9279V26.3996H81.4239ZM81.4239 17.8796V12.5516H78.9279V17.8796H81.4239ZM85.1919 11.8316H92.4639V9.11963H95.5599V11.8316H97.3599V14.9516H95.5599L95.5359 30.7196H90.1839V27.5996H92.4639V14.9516H85.1919V11.8316ZM88.5279 17.0396L90.7119 24.1676H87.5199L85.3359 17.0396H88.5279Z" fill="#202224"/>
<path d="M63.592 9.52805H72.616V28.5841H67.384V25.5121H69.688V12.6001H66.568V30.7201H63.592V9.52805ZM52 9.45605H62.032V21.7441H55.048V26.5921L58.312 25.6321L57.448 22.7521H60.496L62.896 30.7201H59.848L59.2 28.5841L52 30.6961V9.45605ZM59.008 18.9121V16.9921H55.048V18.9121H59.008ZM59.008 14.2081V12.2881H55.048V14.2081H59.008Z" fill="#202224"/>
</svg>
