<svg width="156" height="40" viewBox="0 0 156 40" fill="none" xmlns="http://www.w3.org/2000/svg">
<path d="M141.185 28.2439H135.921L135.417 25.7519H141.185V23.2599H136.677L136.173 20.7679H141.185V19.2559H143.677V20.7679H148.689L147.933 23.2599H143.677V25.7519H149.417L148.689 28.2439H143.677V33.0039H141.185V28.2439ZM133.681 16.0079V18.7519L133.737 28.9159L134.969 28.4119V31.2119L131.217 32.9479L131.189 18.7519H128.921L128.417 16.0079H133.681ZM132.533 8.50391L134.437 14.4959H132.057L129.397 8.50391H132.533ZM140.793 15.3639L136.341 12.0039H140.317L142.865 14.0199L146.169 11.9199V10.9959H136.173L135.669 8.50391H148.689V13.2919L144.769 15.5599L149.417 19.2559V19.2839H146.001L142.669 16.7919L138.441 19.2559H134.689L140.793 15.3639Z" fill="#202224"/>
<path d="M107.434 15.056H103.71L103.206 13.068H104.998L103.71 11.248H105.894L106.762 13.068H107.434V10.492H104.214L103.71 8.504H108.89L113.174 8V9.512L109.45 10.408V13.068H110.122L110.99 11.248H113.174L111.886 13.068H113.678L113.174 15.056H109.45V20.796H107.434V15.056ZM104.998 15.476H107.098L105.054 20.796H103.458L104.998 15.476ZM103.71 21.552H113.174V30.932L112.67 32.92H104.214L103.71 30.932V21.552ZM107.434 30.932V28.244H105.698V30.932H107.434ZM107.434 26.256V23.54H105.698V26.256H107.434ZM111.186 30.932V28.244H109.45V30.932H111.186ZM111.186 26.256V23.54H109.45V26.256H111.186ZM111.886 15.476L113.426 20.796H111.83L109.786 15.476H111.886ZM118.718 8.504V30.932L118.214 32.92H115.47L114.994 30.932H116.59V10.744H114.014L113.51 8.504H118.718ZM114.882 19.732H116.366L115.302 29.7H113.538L114.882 19.732ZM115.834 12.004L116.338 18.976H114.938L114.07 12.004H115.834ZM124.206 8.504V30.932L123.702 32.92H120.958L120.454 30.932H122.078V10.744H119.502L118.998 8.504H124.206ZM120.37 19.732H121.854L120.79 29.7H119.026L120.37 19.732ZM121.322 12.004L121.826 18.976H120.398L119.558 12.004H121.322Z" fill="#202224"/>
<path d="M91.2391 30.008H94.7391V13.992H87.2351L86.7591 11.5H94.7391V8H97.2591V11.5H98.9951L98.4911 13.992H97.2591V30.008L96.7551 32.5H91.7431L91.2391 30.008ZM77.9951 9.008H86.0031V28.496L85.4991 30.988H78.4991L77.9951 28.496V9.008ZM83.4831 28.496V21.244H80.4871V28.496H83.4831ZM83.4831 18.752V11.5H80.4871V18.752H83.4831ZM91.0991 15.756L92.9191 26.76H90.9031L88.5511 15.756H91.0991Z" fill="#202224"/>
<path d="M52.7842 8H62.7802V19.004L62.2762 21.496H55.2762V28.58L59.8962 26.984L59.1122 23.232H61.6602L63.0602 32.248H61.0162L60.3722 29.28L52.7842 32.5V8ZM60.2882 19.004V15.588H55.2762V19.004H60.2882ZM60.2882 13.068V10.492H55.2762V13.068H60.2882ZM64.2922 8H73.7842V26.256H73.7562L73.2802 28.748H69.5562L69.0522 26.256H71.2922V10.492H66.7842V32.5H64.2922V8Z" fill="#202224"/>
<path d="M0 8C0 3.58172 3.58172 0 8 0H32C36.4183 0 40 3.58172 40 8V32C40 36.4183 36.4183 40 32 40H8C3.58172 40 0 36.4183 0 32V8Z" fill="#0395FF"/>
<path d="M18.7207 11.5938H25.3408L25.1211 13.4141H22.8213C21.5813 16.3207 20.1142 18.7138 18.4209 20.5938C19.5489 21.7755 20.9091 22.9058 22.5 23.9854L23.4297 21.7158L25.3174 17.0576H28.3486L29.7031 21.7178L32.2988 30.7061H30.0479L28.9355 26.7969H23.6445L22.0576 30.7021H19.7529L21.6992 25.9443C19.8299 24.6869 18.2626 23.3851 17.001 22.0342C15.9745 22.954 14.8547 23.7805 13.6416 24.5137C12.4284 25.2336 11.0547 25.9271 9.52148 26.5938L7.70117 25.2744C10.9678 23.8878 13.6211 22.2941 15.6611 20.4941C14.0212 18.4275 12.7145 16.0673 11.7412 13.4141H9.36133L9.58105 11.5938H16.501L15.7607 9.29395H17.9209L18.7207 11.5938ZM24.457 24.7969H28.3672L26.7578 19.1387L24.457 24.7969ZM13.9014 13.4141C14.7014 15.534 15.7683 17.4271 17.1016 19.0938C18.5148 17.5872 19.7146 15.6939 20.7012 13.4141H13.9014Z" fill="white"/>
</svg>
