<svg width="200" height="48" viewBox="0 0 200 48" fill="none" xmlns="http://www.w3.org/2000/svg">
<path d="M69.532 26.596H59.416L58.516 33.688C58.492 33.784 58.48 33.892 58.48 34.012C58.48 34.204 58.564 34.3 58.732 34.3C58.876 34.3 59.08 34.252 59.344 34.156C59.92 34.012 60.616 33.784 61.432 33.472L62.188 33.22L62.98 32.932C63.82 32.644 64.564 32.368 65.212 32.104L64.132 28.108H67.372L70.036 37.504H66.724L66.076 35.164C64.708 35.692 63.484 36.136 62.404 36.496L60.424 37.18C59.632 37.468 59.008 37.684 58.552 37.828C58.096 37.972 57.628 38.044 57.148 38.044C56.548 38.044 56.08 37.888 55.744 37.576C55.264 37.144 55.024 36.508 55.024 35.668C55.024 35.5 55.048 35.224 55.096 34.84L57.832 12.664C57.976 11.584 58.3 10.84 58.804 10.432C59.332 10 60.208 9.784 61.432 9.784H68.092C70.132 9.784 71.152 10.612 71.152 12.268C71.152 12.532 71.14 12.736 71.116 12.88L69.532 26.596ZM81.844 13.456H76.948L73.888 39.844H70.504L73.564 13.096C73.684 12.04 73.96 11.296 74.392 10.864C74.824 10.432 75.556 10.216 76.588 10.216H82.564C84.34 10.216 85.228 11.056 85.228 12.736C85.228 12.856 85.204 13.108 85.156 13.492L83.14 31.42C82.948 33.196 82.036 34.084 80.404 34.084C79.804 34.084 79.108 34.012 78.316 33.868C77.548 33.7 76.84 33.496 76.192 33.256L76.624 30.052C77.368 30.292 78.22 30.496 79.18 30.664C79.276 30.688 79.396 30.7 79.54 30.7C79.708 30.7 79.816 30.652 79.864 30.556C79.936 30.46 79.996 30.292 80.044 30.052L81.844 13.456ZM67.876 12.736H61.216L60.676 16.804H67.408L67.876 12.736ZM67.084 19.612H60.316L59.812 23.644H66.616L67.084 19.612ZM117.88 8.74L117.196 14.608H120.4L119.968 17.848H116.836L114.748 36.676C114.532 38.62 113.584 39.592 111.904 39.592C111.76 39.592 111.496 39.568 111.112 39.52C110.056 39.352 108.952 39.112 107.8 38.8C106.696 38.536 105.64 38.176 104.632 37.72L105.1 34.408C106.828 35.056 108.7 35.584 110.716 35.992C110.812 36.016 110.932 36.028 111.076 36.028C111.22 36.028 111.316 35.992 111.364 35.92C111.412 35.824 111.46 35.668 111.508 35.452L113.452 17.848H103.3L103.732 14.608H113.812L114.46 8.74H117.88ZM99.952 37.036H89.224L92.032 13.636C92.152 12.46 92.44 11.632 92.896 11.152C93.352 10.648 94.12 10.396 95.2 10.396H99.952C100.912 10.396 101.608 10.636 102.04 11.116C102.472 11.596 102.688 12.304 102.688 13.24C102.688 13.576 102.676 13.84 102.652 14.032L99.952 37.036ZM99.556 13.564H95.2L94.228 21.52H98.656L99.556 13.564ZM107.692 20.764L109.528 29.872H106.252L104.596 20.764H107.692ZM92.716 33.868H97.252L98.332 24.4H93.868L92.716 33.868ZM124.936 16.984H130.624L131.128 12.52L125.728 12.844L126.016 10.252C130.816 9.988 135.136 9.592 138.976 9.064L138.688 11.764L134.224 12.232L133.684 16.984H138.796L138.472 19.612H133.576C135.4 20.74 137.224 21.964 139.048 23.284L137.14 25.192C135.676 23.992 134.32 22.936 133.072 22.024L132.748 24.904H129.76L130.048 22.312C128.44 23.632 126.58 24.784 124.468 25.768L122.812 23.572C124.324 22.876 125.596 22.24 126.628 21.664C127.66 21.064 128.656 20.38 129.616 19.612H124.648L124.936 16.984ZM141.928 39.376C141.304 39.376 140.608 39.292 139.84 39.124C139.096 38.956 138.424 38.752 137.824 38.512L138.256 35.452C138.52 35.548 138.952 35.68 139.552 35.848L140.776 36.136C140.824 36.16 140.908 36.172 141.028 36.172C141.268 36.172 141.424 35.992 141.496 35.632L142.324 28.36C141.1 29.296 139.78 30.208 138.364 31.096L138.796 27.352C140.044 26.632 141.364 25.756 142.756 24.724L144.16 12.952H139.732L140.092 10.072H145.06C145.732 10.072 146.236 10.276 146.572 10.684C146.908 11.092 147.076 11.644 147.076 12.34C147.076 12.628 147.064 12.856 147.04 13.024L144.196 36.964C144.076 37.828 143.836 38.44 143.476 38.8C143.14 39.184 142.624 39.376 141.928 39.376ZM149.992 39.34C149.368 39.34 148.672 39.256 147.904 39.088C147.16 38.92 146.488 38.716 145.888 38.476L146.32 35.452C146.56 35.548 146.98 35.68 147.58 35.848L148.804 36.136C148.876 36.16 148.96 36.172 149.056 36.172C149.272 36.172 149.416 35.992 149.488 35.632L150.352 28.108C149.344 28.876 148.06 29.752 146.5 30.736L145.852 31.168L146.284 27.424C147.94 26.488 149.44 25.504 150.784 24.472L152.152 12.988H147.76L148.12 10.072H153.088C153.784 10.072 154.312 10.288 154.672 10.72C155.032 11.128 155.212 11.68 155.212 12.376C155.212 12.664 155.2 12.88 155.176 13.024L152.332 36.928C152.212 37.792 151.96 38.404 151.576 38.764C151.216 39.148 150.688 39.34 149.992 39.34ZM135.844 13.132H138.472L137.32 16.264H134.692L135.844 13.132ZM128.968 13.492L129.688 16.264H126.952L126.232 13.492H128.968ZM141.712 15.724L142.684 22.456H140.2L139.372 15.724H141.712ZM149.668 15.94L150.496 22.384H148.084L147.364 15.94H149.668ZM136.42 38.872H123.568L124.936 27.964C125.032 27.292 125.272 26.776 125.656 26.416C126.064 26.032 126.592 25.84 127.24 25.84H135.484C136.228 25.84 136.792 26.032 137.176 26.416C137.56 26.776 137.752 27.304 137.752 28C137.752 28.288 137.74 28.504 137.716 28.648L136.42 38.872ZM130.084 28.36H127.456L127.132 31.06H129.724L130.084 28.36ZM134.764 31.06L135.088 28.36H132.496L132.136 31.06H134.764ZM129.436 33.436H126.844L126.52 36.388H129.076L129.436 33.436ZM131.848 33.436L131.488 36.388H134.116L134.476 33.436H131.848ZM161.332 9.064L168.28 12.052L167.776 15.58L160.864 12.592L161.332 9.064ZM187.576 23.464C184.744 23.008 181.936 21.952 179.152 20.296C177.568 21.088 175.96 21.76 174.328 22.312C172.72 22.864 171.232 23.248 169.864 23.464L167.704 20.872C170.488 20.344 173.308 19.456 176.164 18.208C174.196 16.552 172.66 14.716 171.556 12.7H170.188L170.548 9.604H185.668C186.772 9.604 187.564 10 188.044 10.792C188.212 11.056 188.296 11.392 188.296 11.8C188.296 12.304 188.128 12.856 187.792 13.456C186.808 15.16 184.996 16.84 182.356 18.496C184.684 19.504 187.192 20.248 189.88 20.728L187.576 23.464ZM175.192 12.7C176.152 14.308 177.46 15.652 179.116 16.732C181.132 15.628 182.68 14.464 183.76 13.24C183.856 13.144 183.904 13.048 183.904 12.952C183.904 12.88 183.868 12.82 183.796 12.772C183.748 12.724 183.676 12.7 183.58 12.7H175.192ZM164.32 33.04V33.22C164.32 33.388 164.368 33.472 164.464 33.472C164.536 33.472 164.644 33.436 164.788 33.364C165.82 32.884 166.708 32.38 167.452 31.852L167.884 35.236C167.476 35.524 166.96 35.848 166.336 36.208L165.436 36.676L164.68 37.108C163.936 37.492 163.276 37.684 162.7 37.684C162.268 37.684 161.92 37.6 161.656 37.432C161.032 37.072 160.72 36.364 160.72 35.308C160.72 35.02 160.732 34.792 160.756 34.624L162.484 20.872H158.488L158.884 17.632H164.104C164.8 17.632 165.304 17.848 165.616 18.28C165.952 18.712 166.084 19.276 166.012 19.972L164.32 33.04ZM168.352 33.796L168.712 30.7H176.524L176.884 27.82H169.576L169.936 24.796H177.208L177.568 21.88H181.06L180.7 24.796H187.972L187.612 27.82H180.34L180.016 30.7H188.8L188.44 33.796H179.62L178.936 39.772H175.48L176.164 33.796H168.352Z" fill="#202224"/>
<g clip-path="url(#clip0_2032_868)">
<path d="M24 24C24 35.0457 15.0457 44 4 44C4 32.9543 12.9543 24 24 24ZM34 26C38.4183 26 42 29.5817 42 34C42 38.4183 38.4183 42 34 42C29.5817 42 26 38.4183 26 34C26 29.5817 29.5817 26 34 26ZM44 4C44 15.0457 35.0457 24 24 24C24 12.9543 32.9543 4 44 4ZM15 7C19.4183 7 23 10.5817 23 15C23 19.4183 19.4183 23 15 23C10.5817 23 7 19.4183 7 15C7 10.5817 10.5817 7 15 7Z" fill="url(#paint0_linear_2032_868)"/>
</g>
<defs>
<linearGradient id="paint0_linear_2032_868" x1="24" y1="4" x2="24" y2="44" gradientUnits="userSpaceOnUse">
<stop stop-color="#0776FF"/>
<stop offset="1" stop-color="#0395FF"/>
</linearGradient>
<clipPath id="clip0_2032_868">
<rect width="40" height="40" fill="white" transform="translate(4 4)"/>
</clipPath>
</defs>
</svg>
